<svg xmlns="http://www.w3.org/2000/svg" width="25" height="14" viewBox="0 0 25 14" fill="none"><path d="M24.3527 13.199C24.1286 12.9948 23.9468 12.8292 23.7311 12.6326C23.7465 12.8466 23.7589 13.0197 23.7719 13.199H24.3527ZM23.3899 13.2018C23.399 13.0545 23.4004 12.9646 23.4109 12.8759C23.4696 12.3771 23.3032 11.996 22.8811 11.7316C22.7793 11.6678 22.7047 11.5561 22.6204 11.4636C22.3358 11.1509 22.0558 10.8338 21.7658 10.5267C21.7165 10.4743 21.6268 10.4631 21.5445 10.4282V13.2018H23.3899ZM19.2229 7.88214V13.2018H21.1294C21.1506 13.1283 21.1775 13.0782 21.1776 13.028C21.1811 12.0989 21.1769 11.1695 21.1857 10.2404C21.1876 10.0372 21.1071 9.89922 20.9741 9.76619C20.7116 9.50376 20.455 9.23458 20.2023 8.96195C19.9047 8.64125 19.6138 8.3139 19.2229 7.88214ZM16.9108 5.56187C16.8179 6.6092 16.8529 12.8069 16.9547 13.2259C17.5723 13.2185 18.1975 13.2534 18.7919 13.2056C18.8291 13.1434 18.8458 13.1285 18.8459 13.1135C18.8527 11.3109 18.8564 9.50841 18.8667 7.7058C18.8679 7.49562 18.7558 7.37744 18.6209 7.25215C18.2985 6.95288 17.9817 6.64697 17.6683 6.33758C17.4211 6.09366 17.1823 5.84062 16.9108 5.56187ZM14.7307 3.29403C14.7076 3.31664 14.6881 3.32649 14.6852 3.34008C14.6703 3.40956 14.6492 3.48004 14.6493 3.55007C14.6528 6.73641 14.6582 9.92274 14.6645 13.109C14.6645 13.1243 14.6783 13.1407 14.6883 13.1547C14.6986 13.1693 14.712 13.1815 14.7245 13.1952H16.516C16.5265 13.0777 16.5412 12.9904 16.5412 12.9029C16.5427 10.4446 16.5377 7.98627 16.5481 5.52804C16.5498 5.16057 16.3967 4.90499 16.149 4.68204C16.0443 4.58784 15.9231 4.51133 15.8272 4.40893C15.5012 4.0607 15.1845 3.70326 14.8604 3.3532C14.8289 3.3191 14.7708 3.31145 14.7307 3.29403ZM12.547 13.1695C13.1983 13.2691 13.9481 13.2506 14.2991 13.133V2.7068C13.7493 2.17429 13.162 1.60549 12.547 1.00988V13.1695ZM24.9552 13.5288H0C0.205699 13.2413 0.342177 12.9934 0.530088 12.7987C1.02109 12.2899 1.54167 11.8116 2.03637 11.3065C2.33224 11.0045 2.59317 10.6659 2.88516 10.3595C3.20242 10.0265 3.53783 9.71211 3.86478 9.38896C4.1028 9.15352 4.34724 8.92428 4.57566 8.67918C4.86439 8.36924 5.1312 8.03715 5.42328 7.73077C5.74064 7.39777 6.0801 7.08756 6.40194 6.75903C6.56264 6.5949 6.69797 6.40433 6.85753 6.23882C8.59971 4.4311 10.3445 2.62601 12.0885 0.820107C12.1383 0.768594 12.1853 0.713435 12.2386 0.666023C12.4487 0.479275 12.5099 0.481278 12.7302 0.68352C12.796 0.743883 12.8553 0.81182 12.9176 0.876285C16.8288 4.92695 20.7402 8.97753 24.6508 13.0289C24.7717 13.1542 24.8839 13.2887 25 13.4188C24.985 13.4556 24.9701 13.4922 24.9552 13.5288Z" fill="#EA5501"></path></svg>